<svg width="102" height="92" viewBox="0 0 102 92" fill="none" xmlns="http://www.w3.org/2000/svg">
<g clip-path="url(#clip0)">
<rect width="33.9227" height="2.75191" rx="1.37596" transform="matrix(-1 0 0 1 58.1937 88.745)" fill="#4D4D60"/>
<g clip-path="url(#clip1)">
<path fill-rule="evenodd" clip-rule="evenodd" d="M60.2684 42.4906L62.7428 39.5086L57.4068 34.7667L54.9689 38.5955L60.2684 42.4906Z" fill="#F7DFCB" stroke="#252122" stroke-width="0.985428"/>
<g clip-path="url(#clip2)">
<path fill-rule="evenodd" clip-rule="evenodd" d="M64.2169 53.0684C64.2169 53.0684 73.8896 61.7942 81.5143 58.6625C82.0011 60.0335 83.1915 61.7942 83.1915 61.7942L89.9766 59.001L85.1726 49.1875L77.5611 50.6395C77.5611 50.6395 78.2657 52.4579 78.566 53.3359C74.3898 55.3993 67.1962 49.1875 67.1962 49.1875L64.2169 53.0684Z" fill="#E7CFBD" stroke="#252122" stroke-width="0.985428"/>
<path fill-rule="evenodd" clip-rule="evenodd" d="M90.7975 54.3152L92.9376 57.8509L87.6354 60.9383L85.874 57.4952L90.7975 54.3152Z" fill="#C5B2A3" stroke="#252122" stroke-width="0.788343"/>
<path fill-rule="evenodd" clip-rule="evenodd" d="M84.6632 57.6851L91.5441 54.1164L89.2129 50.4413L82.6776 54.246L84.6632 57.6851Z" fill="#C5B2A3" stroke="#252122" stroke-width="0.788343"/>
<path fill-rule="evenodd" clip-rule="evenodd" d="M85.8561 52.1698L90.6473 49.5994L87.8986 45.5144L83.4371 48.4223L85.8561 52.1698Z" fill="#DEC8B5" stroke="#252122" stroke-width="0.788343"/>
<path fill-rule="evenodd" clip-rule="evenodd" d="M83.5032 47.6986L87.1403 53.258L82.5324 55.7181L79.5431 49.8786L83.5032 47.6986Z" fill="#DEC8B5" stroke="#252122" stroke-width="0.788343"/>
<path fill-rule="evenodd" clip-rule="evenodd" d="M56.8701 49.2657C56.8701 49.2657 62.0321 53.7751 63.0379 55.2964C64.7596 53.173 69.2058 48.7494 69.2058 48.7494L62.4732 44.4445L56.8701 49.2657Z" fill="#F6EACE" stroke="#252122" stroke-width="0.985428"/>
</g>
<g clip-path="url(#clip3)">
<path fill-rule="evenodd" clip-rule="evenodd" d="M63.675 80.1109C63.1435 79.9564 62.9141 79.3178 63.223 78.8587C64.5573 76.8758 67.5031 72.1769 67.8625 68.8458C69.9576 63.1222 77.2236 63.723 79.0721 64.2317C77.2236 68.8458 79.0721 71.2338 72.7248 83.4872C70.0202 82.0387 65.6937 80.6975 63.675 80.1109Z" fill="#323441" stroke="#252122" stroke-width="0.985428"/>
<g clip-path="url(#clip4)">
<path fill-rule="evenodd" clip-rule="evenodd" d="M53.1975 68.1927L66.6704 72.8174L64.0762 78.2051L50.1689 72.9452L53.1975 68.1927Z" fill="#F7DFCB"/>
<mask id="mask0" mask-type="alpha" maskUnits="userSpaceOnUse" x="50" y="68" width="17" height="11">
<path fill-rule="evenodd" clip-rule="evenodd" d="M53.1975 68.1927L66.6704 72.8174L64.0762 78.2051L50.1689 72.9452L53.1975 68.1927Z" fill="white"/>
</mask>
<g mask="url(#mask0)">
<path fill-rule="evenodd" clip-rule="evenodd" d="M51.1843 70.285L65.9977 76.0226L64.629 78.1178L50.1029 72.6882L51.1843 70.285Z" fill="#EBD4C1"/>
</g>
<path fill-rule="evenodd" clip-rule="evenodd" d="M53.1975 68.1927L66.6704 72.8174L64.0762 78.2051L50.1689 72.9452L53.1975 68.1927Z" stroke="#252122" stroke-width="0.985428"/>
<mask id="mask1" mask-type="alpha" maskUnits="userSpaceOnUse" x="49" y="67" width="19" height="12">
<path fill-rule="evenodd" clip-rule="evenodd" d="M53.1975 68.1927L66.6704 72.8174L64.0762 78.2051L50.1689 72.9452L53.1975 68.1927Z" fill="white" stroke="white" stroke-width="0.985428"/>
</mask>
<g mask="url(#mask1)">
</g>
</g>
</g>
<g clip-path="url(#clip5)">
<path fill-rule="evenodd" clip-rule="evenodd" d="M20.6939 64.9035C21.7812 62.5046 24.0051 58.3488 24.4125 55.5674C15.9082 53.1321 7.83715 47.2576 7.83715 47.2576C7.83715 47.2576 -3.14298 58.157 20.6939 64.9035Z" fill="#323441" stroke="#252122" stroke-width="0.985428"/>
<g clip-path="url(#clip6)">
<path fill-rule="evenodd" clip-rule="evenodd" d="M27.766 69.5787C20.6446 69.0939 20.2032 66.2505 20.2032 63.3267C17.2108 61.5357 12.941 60.7058 12.941 60.7058C12.941 60.7058 12.6947 76.7373 28.9543 75.2207C28.4041 72.7427 28.9543 71.9297 27.766 69.5787Z" fill="#E7CFBD"/>
<mask id="mask2" mask-type="alpha" maskUnits="userSpaceOnUse" x="12" y="60" width="17" height="16">
<path fill-rule="evenodd" clip-rule="evenodd" d="M27.766 69.5787C20.6446 69.0939 20.2032 66.2505 20.2032 63.3267C17.2108 61.5357 12.941 60.7058 12.941 60.7058C12.941 60.7058 12.6947 76.7373 28.9543 75.2207C28.4041 72.7427 28.9543 71.9297 27.766 69.5787Z" fill="white"/>
</mask>
<g mask="url(#mask2)">
<path fill-rule="evenodd" clip-rule="evenodd" d="M25.0215 69.7082L24.9014 75.3232L28.6063 75.2933L28.3803 69.5882L25.0215 69.7082Z" fill="#DAC3B1"/>
</g>
<path fill-rule="evenodd" clip-rule="evenodd" d="M27.766 69.5787C20.6446 69.0939 20.2032 66.2505 20.2032 63.3267C17.2108 61.5357 12.941 60.7058 12.941 60.7058C12.941 60.7058 12.6947 76.7373 28.9543 75.2207C28.4041 72.7427 28.9543 71.9297 27.766 69.5787Z" stroke="#252122" stroke-width="0.985428"/>
<mask id="mask3" mask-type="alpha" maskUnits="userSpaceOnUse" x="12" y="60" width="18" height="16">
<path fill-rule="evenodd" clip-rule="evenodd" d="M27.766 69.5787C20.6446 69.0939 20.2032 66.2505 20.2032 63.3267C17.2108 61.5357 12.941 60.7058 12.941 60.7058C12.941 60.7058 12.6947 76.7373 28.9543 75.2207C28.4041 72.7427 28.9543 71.9297 27.766 69.5787Z" fill="white" stroke="white" stroke-width="0.985428"/>
</mask>
<g mask="url(#mask3)">
</g>
</g>
</g>
<g clip-path="url(#clip7)">
<path fill-rule="evenodd" clip-rule="evenodd" d="M33.7511 62.3469C33.7511 62.3469 31.0637 66.5814 27.5768 67.9616C27.238 68.0957 27.0691 68.495 27.2177 68.8277C28.7628 72.2869 27.0546 74.3109 29.5846 79.9541C34.2016 80.5783 42.549 70.3036 42.549 70.3036L33.7511 62.3469Z" fill="#B79761" stroke="#252122" stroke-width="0.985428"/>
<g clip-path="url(#clip8)">
<path fill-rule="evenodd" clip-rule="evenodd" d="M54.5806 67.1401C54.5806 67.1401 42.9641 57.7122 36.1732 52.2155C23.8745 62.9556 48.7019 76.5258 48.7019 76.5258L54.5806 67.1401Z" fill="#DFCAA7"/>
<mask id="mask4" mask-type="alpha" maskUnits="userSpaceOnUse" x="32" y="52" width="23" height="25">
<path fill-rule="evenodd" clip-rule="evenodd" d="M54.5806 67.1401C54.5806 67.1401 42.9641 57.7122 36.1732 52.2155C23.8745 62.9556 48.7019 76.5258 48.7019 76.5258L54.5806 67.1401Z" fill="white"/>
</mask>
<g mask="url(#mask4)">
<path fill-rule="evenodd" clip-rule="evenodd" d="M51.3212 71.1251C42.4672 65.6203 44.3981 59.2005 44.3981 59.2005L53.9402 67.1115C53.9402 67.1115 52.5066 72.0223 51.3212 71.1251Z" fill="#F7E2BE"/>
</g>
<path fill-rule="evenodd" clip-rule="evenodd" d="M54.5806 67.1401C54.5806 67.1401 42.9641 57.7122 36.1732 52.2155C23.8745 62.9556 48.7019 76.5258 48.7019 76.5258L54.5806 67.1401Z" stroke="#252122" stroke-width="0.985428"/>
<mask id="mask5" mask-type="alpha" maskUnits="userSpaceOnUse" x="32" y="51" width="24" height="27">
<path fill-rule="evenodd" clip-rule="evenodd" d="M54.5806 67.1401C54.5806 67.1401 42.9641 57.7122 36.1732 52.2155C23.8745 62.9556 48.7019 76.5258 48.7019 76.5258L54.5806 67.1401Z" fill="white" stroke="white" stroke-width="0.985428"/>
</mask>
<g mask="url(#mask5)">
</g>
</g>
<g clip-path="url(#clip9)">
<path fill-rule="evenodd" clip-rule="evenodd" d="M63.9705 45.2335C64.2575 44.9784 64.2166 44.5182 63.8893 44.3173L48.4147 34.8199C48.4147 34.8199 36.1025 46.5122 33.2145 52.2396C42.8132 53.8689 40.6135 62.0683 47.9219 63.3899C51.2863 56.7406 61.4332 47.4886 63.9705 45.2335Z" fill="#FEF5D6"/>
<mask id="mask6" mask-type="alpha" maskUnits="userSpaceOnUse" x="33" y="34" width="32" height="30">
<path fill-rule="evenodd" clip-rule="evenodd" d="M63.9705 45.2335C64.2575 44.9784 64.2166 44.5182 63.8893 44.3173L48.4147 34.8199C48.4147 34.8199 36.1025 46.5122 33.2145 52.2396C42.8132 53.8689 40.6135 62.0683 47.9219 63.3899C51.2863 56.7406 61.4332 47.4886 63.9705 45.2335Z" fill="white"/>
</mask>
<g mask="url(#mask6)">
<path fill-rule="evenodd" clip-rule="evenodd" d="M54.5613 39.2005C54.5613 39.2005 42.5728 47.5288 52.2387 56.7881C50.8393 61.9876 47.2986 66.1848 47.2986 66.1848L28.2726 50.2725L39.0474 36.9915L47.6296 34.0472L54.5613 39.2005Z" fill="#EDE2B9"/>
</g>
<path fill-rule="evenodd" clip-rule="evenodd" d="M63.9705 45.2335C64.2575 44.9784 64.2166 44.5182 63.8893 44.3173L48.4147 34.8199C48.4147 34.8199 36.1025 46.5123 33.2145 52.2396C42.8132 53.8689 40.6135 62.0683 47.9219 63.3899C51.2863 56.7406 61.4332 47.4886 63.9705 45.2335Z" stroke="#252122" stroke-width="0.985428"/>
<mask id="mask7" mask-type="alpha" maskUnits="userSpaceOnUse" x="32" y="34" width="33" height="30">
<path fill-rule="evenodd" clip-rule="evenodd" d="M63.9705 45.2335C64.2575 44.9784 64.2166 44.5182 63.8893 44.3173L48.4147 34.8199C48.4147 34.8199 36.1025 46.5122 33.2145 52.2396C42.8132 53.8689 40.6135 62.0683 47.9219 63.3899C51.2863 56.7406 61.4332 47.4886 63.9705 45.2335Z" fill="white" stroke="white" stroke-width="0.985428"/>
</mask>
<g mask="url(#mask7)">
</g>
</g>
</g>
<g clip-path="url(#clip10)">
<g clip-path="url(#clip11)">
<path fill-rule="evenodd" clip-rule="evenodd" d="M43.1169 31.0208C43.1169 31.0208 34.4248 24.6196 28.6924 26.6496C27.3032 24.6831 25.5094 25.0274 25.5094 25.0274C25.5094 25.0274 24.4618 25.0082 22.9144 24.5772C21.8254 24.2739 19.3012 22.8256 17.901 21.9939C17.3324 21.6562 16.6024 21.768 16.1672 22.2661C15.5743 22.9448 15.7943 24.0112 16.5753 24.4611C17.6248 25.0657 18.8996 25.9145 19.4303 26.7237C19.7821 27.2602 12.4418 27.8359 11.8751 28.7758C11.6462 29.1555 11.073 30.3119 12.4748 30.9442C13.0743 31.2146 14.5829 31.0849 16.1136 30.8479C17.1728 30.6839 17.8725 32.0837 17.0628 32.7859L15.032 34.547C14.6488 34.8793 14.5674 35.4426 14.841 35.8698L15.2286 36.475C15.5193 36.929 16.1092 37.0819 16.5846 36.8274C18.9972 35.5358 25.774 32.0383 25.6303 33.5832C25.5212 34.7564 25.45 36.3511 25.4119 37.3833C25.3909 37.9537 25.8458 38.4258 26.4166 38.4315L26.9632 38.4368C27.5433 38.4425 28.014 37.9674 28.0168 37.3872C28.0269 35.299 28.2026 30.8541 29.5164 30.8548C35.1173 29.663 41.2689 34.744 41.2689 34.744L43.1169 31.0208Z" fill="#F7DFCB"/>
<mask id="mask8" mask-type="alpha" maskUnits="userSpaceOnUse" x="11" y="21" width="33" height="18">
<path fill-rule="evenodd" clip-rule="evenodd" d="M43.117 31.0208C43.117 31.0208 34.425 24.6196 28.6926 26.6496C27.3034 24.6831 25.5096 25.0274 25.5096 25.0274C25.5096 25.0274 24.4619 25.0082 22.9145 24.5772C21.8255 24.2739 19.3013 22.8255 17.9012 21.9939C17.3325 21.6562 16.6025 21.768 16.1674 22.266C15.5744 22.9448 15.7944 24.0112 16.5754 24.4611C17.6249 25.0657 18.8997 25.9145 19.4304 26.7237C19.7822 27.2602 12.4419 27.8359 11.8752 28.7757C11.6463 29.1555 11.0731 30.3119 12.475 30.9442C13.0744 31.2145 14.583 31.0849 16.1137 30.8479C17.1729 30.6839 17.8726 32.0837 17.0629 32.7859L15.0321 34.5469C14.6489 34.8793 14.5675 35.4426 14.8411 35.8698L15.2287 36.475C15.5195 36.929 16.1094 37.0819 16.5847 36.8274C18.9973 35.5358 25.7741 32.0383 25.6304 33.5831C25.5213 34.7563 25.4501 36.3511 25.412 37.3833C25.391 37.9537 25.8459 38.4258 26.4167 38.4314L26.9633 38.4368C27.5434 38.4425 28.0141 37.9673 28.0169 37.3872C28.027 35.299 28.2027 30.854 29.5165 30.8547C35.1174 29.6629 41.269 34.744 41.269 34.744L43.117 31.0208Z" fill="white"/>
</mask>
<g mask="url(#mask8)">
<path fill-rule="evenodd" clip-rule="evenodd" d="M42.3281 31.4545C42.3281 31.4545 33.0124 27.4079 28.4104 28.7272C26.7387 27.3329 26.4933 27.1946 25.5089 27.0287C20.6729 26.2126 16.0293 22.8205 16.0293 22.8205L10.4032 27.3357L12.8216 39.7789L21.4684 40.1374L27.2662 41.3186C27.2662 41.3186 31.3926 39.3731 31.3321 38.2178C31.2716 37.0625 31.4425 32.6307 31.4425 32.6307L39.0956 37.3026L42.3281 31.4545Z" fill="#EED4BF"/>
</g>
<path fill-rule="evenodd" clip-rule="evenodd" d="M43.1169 31.0208C43.1169 31.0208 34.4248 24.6196 28.6924 26.6496C27.3032 24.6831 25.5094 25.0274 25.5094 25.0274C25.5094 25.0274 24.4618 25.0082 22.9144 24.5772C21.8254 24.2739 19.3012 22.8256 17.901 21.9939C17.3324 21.6562 16.6024 21.768 16.1672 22.2661V22.2661C15.5743 22.9448 15.7943 24.0112 16.5753 24.4611C17.6248 25.0657 18.8996 25.9145 19.4303 26.7237C19.7821 27.2603 12.4418 27.8359 11.8751 28.7758C11.6462 29.1555 11.073 30.3119 12.4748 30.9442C13.0743 31.2146 14.5829 31.0849 16.1136 30.8479C17.1728 30.6839 17.8725 32.0837 17.0628 32.7859L15.032 34.547C14.6488 34.8793 14.5674 35.4426 14.841 35.8698L15.2286 36.475C15.5193 36.929 16.1092 37.0819 16.5846 36.8274C18.9972 35.5358 25.774 32.0383 25.6303 33.5832C25.5212 34.7564 25.45 36.3511 25.4119 37.3833C25.3909 37.9537 25.8458 38.4258 26.4166 38.4315L26.9632 38.4368C27.5433 38.4425 28.014 37.9674 28.0168 37.3872C28.0269 35.299 28.2026 30.8541 29.5164 30.8548C35.1173 29.663 41.2689 34.744 41.2689 34.744L43.1169 31.0208Z" stroke="#252122" stroke-width="0.985428"/>
<mask id="mask9" mask-type="alpha" maskUnits="userSpaceOnUse" x="10" y="20" width="34" height="20">
<path fill-rule="evenodd" clip-rule="evenodd" d="M43.1169 31.0208C43.1169 31.0208 34.4248 24.6196 28.6924 26.6496C27.3032 24.6831 25.5094 25.0274 25.5094 25.0274C25.5094 25.0274 24.4618 25.0082 22.9144 24.5772C21.8254 24.2739 19.3012 22.8256 17.901 21.9939C17.3324 21.6562 16.6024 21.768 16.1672 22.2661C15.5743 22.9448 15.7943 24.0112 16.5753 24.4611C17.6248 25.0657 18.8996 25.9145 19.4303 26.7237C19.7821 27.2602 12.4418 27.8359 11.8751 28.7758C11.6462 29.1555 11.073 30.3119 12.4748 30.9442C13.0743 31.2146 14.5829 31.0849 16.1136 30.8479C17.1728 30.6839 17.8725 32.0837 17.0628 32.7859L15.032 34.547C14.6488 34.8793 14.5674 35.4426 14.841 35.8698L15.2286 36.475C15.5193 36.929 16.1092 37.0819 16.5846 36.8274C18.9972 35.5358 25.774 32.0383 25.6303 33.5832C25.5212 34.7564 25.45 36.3511 25.4119 37.3833C25.3909 37.9537 25.8458 38.4258 26.4166 38.4315L26.9632 38.4368C27.5433 38.4425 28.014 37.9674 28.0168 37.3872C28.0269 35.299 28.2026 30.8541 29.5164 30.8548C35.1173 29.663 41.2689 34.744 41.2689 34.744L43.1169 31.0208Z" fill="white" stroke="white" stroke-width="0.985428"/>
</mask>
<g mask="url(#mask9)">
</g>
</g>
<path fill-rule="evenodd" clip-rule="evenodd" d="M43.0634 29.1443L50.5197 33.9604C52.2442 35.0744 52.646 37.4255 51.3893 39.0489C50.204 40.58 48.0006 40.8624 46.4348 39.7234C44.5326 38.3398 41.9926 36.5673 39.8913 35.3629C42.0761 33.1958 43.0634 29.1443 43.0634 29.1443Z" fill="#FEF5D6" stroke="#252122" stroke-width="0.985428"/>
<path fill-rule="evenodd" clip-rule="evenodd" d="M45.6303 31.3661C45.5365 33.525 42.956 36.7162 42.956 36.7162L40.6755 35.2719C40.6755 35.2719 42.9842 31.8198 43.3428 29.8669C43.3428 29.8669 44.9589 30.9331 45.6303 31.3661Z" fill="#E9D8B1"/>
</g>
</g>
<g clip-path="url(#clip12)">
<g clip-path="url(#clip13)">
<path fill-rule="evenodd" clip-rule="evenodd" d="M78.9384 40.4362L79.6311 37.6945C79.6311 37.6945 79.5367 33.764 79.9778 30.0687C80.5538 29.4804 80.7085 28.6687 80.7085 28.6687L72.2214 20.1194L64.5427 17.6688L60.0507 23.3996L73.5273 44.9807L78.0545 42.7129L78.9384 40.4362Z" fill="#252122"/>
<path fill-rule="evenodd" clip-rule="evenodd" d="M69.8401 34.9965C70.2385 35.2159 71.7356 35.0502 72.3522 34.9701C72.5175 34.9486 72.6545 34.8347 72.7095 34.6773L73.3658 32.7998C73.4089 32.6763 73.3962 32.5402 73.3308 32.4268L72.6298 31.2119C72.6147 31.1857 72.5898 31.1666 72.5599 31.1615C72.4293 31.1392 72.0638 31.1069 72.0155 31.4329C71.0712 31.594 70.1136 31.6936 69.5326 31.7453C69.2254 31.7727 68.9934 32.0379 69.0302 32.3442C69.1175 33.072 69.3358 34.3347 69.8401 34.9965Z" fill="black"/>
<path fill-rule="evenodd" clip-rule="evenodd" d="M75.2848 27.0661C74.8873 26.9365 74.4613 27.1413 74.3542 27.5454C74.1132 28.4547 73.8314 30.0659 74.3868 31.3528C74.5123 31.7765 75.6865 31.8775 76.2188 31.9016C76.3903 31.9093 76.5592 31.87 76.7135 31.7949L79.4625 30.4569C79.7137 30.3347 79.9161 30.131 80.0366 29.879L80.5592 28.7871L75.2848 27.0661Z" fill="black"/>
<path d="M75.4111 31.38L76.1965 31.2757" stroke="#4F4F4F" stroke-width="0.243316" stroke-linecap="round" stroke-linejoin="round"/>
<path d="M77.6077 30.8372C77.6077 30.8372 79.375 30.1411 79.6257 29.796" stroke="#4F4F4F" stroke-width="0.243316" stroke-linecap="round" stroke-linejoin="round"/>
<path fill-rule="evenodd" clip-rule="evenodd" d="M75.2105 28.7431C75.1603 28.7066 75.1492 28.6362 75.1857 28.5859C75.2223 28.5356 75.2926 28.5244 75.3429 28.5609C75.3931 28.5975 75.4042 28.6678 75.3677 28.7181C75.3311 28.7684 75.2608 28.7796 75.2105 28.7431Z" fill="#4F4F4F"/>
<path fill-rule="evenodd" clip-rule="evenodd" d="M76.6532 31.1558C76.6426 31.1266 76.6813 31.0857 76.7398 31.0644C76.7982 31.0431 76.8542 31.0496 76.8648 31.0788C76.8754 31.108 76.8367 31.1489 76.7783 31.1702C76.7198 31.1914 76.6639 31.185 76.6532 31.1558Z" fill="#4F4F4F"/>
</g>
<g clip-path="url(#clip14)">
<g clip-path="url(#clip15)">
<path fill-rule="evenodd" clip-rule="evenodd" d="M79.055 39.9631C79.4081 39.8151 79.8543 39.9776 79.7546 40.5829C79.4339 43.1946 79.0999 45.3513 78.8339 46.9132C78.5487 48.5879 77.1445 49.8149 75.4502 49.9376L73.1186 50.1065C71.8656 50.1972 70.6481 49.6663 69.862 48.6864L62.8613 39.9601C62.7334 39.8006 62.5862 39.6577 62.4231 39.5344L57.9641 36.1658C57.8316 36.0657 57.6904 35.9796 57.54 35.9092C56.4932 35.4184 51.9915 33.3442 48.2816 32.1959C47.9064 32.0447 47.5311 31.8936 47.1729 31.7493C45.7695 31.1841 44.9671 29.7002 45.2624 28.2163L45.5297 26.8731C45.5711 26.6647 45.7771 26.5322 45.9839 26.5808V26.5808C45.9839 26.5808 46.1569 25.8368 46.4833 25.1879C46.3427 24.9484 46.5195 23.9139 47.7951 23.123C49.0707 22.3321 50.5505 19.0729 52.3324 15.1853C61.4408 -0.0262983 86.3458 12.9689 82.3498 26.1324C82.7962 26.3288 82.2388 27.7182 82.2388 27.7182C82.2388 27.7182 82.3778 27.8296 82.3762 27.9195C82.3682 28.3683 82.3548 28.3867 82.2008 28.7365C82.1299 28.8471 82.0346 28.7428 81.8691 28.752C81.4953 29.2665 80.6442 28.8226 80.6442 28.8226C80.6442 28.8226 73.6332 26.386 72.8145 26.3179C72.8134 26.0704 72.7823 25.6776 72.7823 25.6776L72.1512 24.4954C72.1512 24.4954 72.0217 21.7454 71.6662 21.4871C71.4359 21.3198 68.1895 19.9798 67.217 20.1183C66.745 20.1856 63.4227 23.1115 64.7858 24.1019C66.5122 24.2282 73.5121 27.0282 73.5162 27.3444C73.6601 29.3697 73.4128 30.6231 72.3952 30.7914C67.4541 30.3715 68.1062 32.6802 70.1319 36.3906C72.0589 39.2882 73.6717 42.6914 74.8119 42.5474C75.9522 42.4034 77.1414 40.7654 79.055 39.9631Z" stroke="#252122" stroke-width="1.41902"/>
<path fill-rule="evenodd" clip-rule="evenodd" d="M79.0545 39.9631C79.4076 39.8151 79.8538 39.9775 79.7541 40.5829C79.333 43.079 79.0033 45.1445 78.766 46.6773C78.4903 48.4571 77.0261 49.8234 75.2298 49.9535L73.1181 50.1064C71.8651 50.1972 70.6476 49.6663 69.8615 48.6864L62.8608 39.96C62.7329 39.8006 62.5857 39.6576 62.4226 39.5344L57.9637 36.1658C57.8312 36.0657 57.6899 35.9796 57.5396 35.9091C56.4928 35.4184 51.991 33.3442 48.2811 32.1958C47.9059 32.0447 47.5307 31.8936 47.1724 31.7493C45.769 31.184 44.9666 29.7001 45.2619 28.2162L45.5292 26.873C45.5707 26.6646 45.7766 26.5321 45.9835 26.5808C45.9835 26.5808 46.1564 25.8367 46.4828 25.1879C46.3422 24.9484 46.5191 23.9138 47.7946 23.1229C49.0702 22.332 50.5501 19.0729 52.332 15.1853C61.4403 -0.026338 86.3453 12.9689 82.3493 26.1324C82.7958 26.3287 82.2383 27.7182 82.2383 27.7182C82.2383 27.7182 82.3774 27.8295 82.3758 27.9194C82.3677 28.3682 82.3543 28.3867 82.2003 28.7365C82.1295 28.847 82.0341 28.7428 81.8687 28.7519C81.4948 29.2664 80.6437 28.8226 80.6437 28.8226C80.6437 28.8226 73.6328 26.386 72.814 26.3179C72.813 26.0704 72.7818 25.6776 72.7818 25.6776L72.1508 24.4953C72.1508 24.4953 72.0213 21.7454 71.6657 21.4871C71.4354 21.3197 68.1891 19.9798 67.2165 20.1183C66.7446 20.1855 63.4222 23.1115 64.7853 24.1018C66.5117 24.2282 73.5117 27.0281 73.5158 27.3444C73.6596 29.3696 73.4123 30.6231 72.3947 30.7914C67.4536 30.3715 68.1058 32.6801 70.1314 36.3906C72.0585 39.2882 73.6712 42.6914 74.8115 42.5474C75.9517 42.4034 77.1409 40.7653 79.0545 39.9631Z" fill="url(#paint0_radial)"/>
<mask id="mask10" mask-type="alpha" maskUnits="userSpaceOnUse" x="42" y="1" width="53" height="52">
<path fill-rule="evenodd" clip-rule="evenodd" d="M79.0545 39.9631C79.4076 39.8151 79.8538 39.9775 79.7541 40.5829C79.333 43.079 79.0033 45.1445 78.766 46.6773C78.4903 48.4571 77.0261 49.8234 75.2298 49.9535L73.1181 50.1064C71.8651 50.1972 70.6476 49.6663 69.8615 48.6864L62.8608 39.96C62.7329 39.8006 62.5857 39.6576 62.4226 39.5344L57.9637 36.1658C57.8312 36.0657 57.6899 35.9796 57.5396 35.9091C56.4928 35.4184 51.991 33.3442 48.2811 32.1958C47.9059 32.0447 47.5307 31.8936 47.1724 31.7493C45.769 31.184 44.9666 29.7001 45.2619 28.2162L45.5292 26.873C45.5707 26.6646 45.7766 26.5321 45.9835 26.5808C45.9835 26.5808 46.1564 25.8367 46.4828 25.1879C46.3422 24.9484 46.5191 23.9138 47.7946 23.1229C49.0702 22.332 50.5501 19.0729 52.332 15.1853C61.4403 -0.026338 86.3453 12.9689 82.3493 26.1324C82.7958 26.3287 82.2383 27.7182 82.2383 27.7182C82.2383 27.7182 82.3774 27.8295 82.3758 27.9194C82.3677 28.3682 82.3543 28.3867 82.2003 28.7365C82.1295 28.847 82.0341 28.7428 81.8687 28.7519C81.4948 29.2664 80.6437 28.8226 80.6437 28.8226C80.6437 28.8226 73.6328 26.386 72.814 26.3179C72.813 26.0704 72.7818 25.6776 72.7818 25.6776L72.1508 24.4953C72.1508 24.4953 72.0213 21.7454 71.6657 21.4871C71.4354 21.3197 68.1891 19.9798 67.2165 20.1183C66.7446 20.1855 63.4222 23.1115 64.7853 24.1018C66.5117 24.2282 73.5117 27.0281 73.5158 27.3444C73.6596 29.3696 73.4123 30.6231 72.3947 30.7914C67.4536 30.3715 68.1058 32.6801 70.1314 36.3906C72.0585 39.2882 73.6712 42.6914 74.8115 42.5474C75.9517 42.4034 77.1409 40.7653 79.0545 39.9631Z" fill="white"/>
</mask>
<g mask="url(#mask10)">
<path fill-rule="evenodd" clip-rule="evenodd" d="M72.5532 40.3427C72.5532 40.3427 74.2614 44.3894 75.9368 43.2681C77.8562 41.6402 80.2385 40.1268 80.2385 40.1268L79.5037 39.1685L72.5532 40.3427Z" fill="#D8D8D8"/>
<path fill-rule="evenodd" clip-rule="evenodd" d="M72.7702 25.7222L82.3624 28.9006L82.5574 27.8752L72.122 24.4299L72.7702 25.7222Z" fill="#221E1E"/>
<path fill-rule="evenodd" clip-rule="evenodd" d="M70.4437 36.8058C67.3599 33.2059 68.1601 30.5009 70.3059 30.0386C71.5055 29.7494 71.6536 28.1836 71.7294 26.3999C72.9341 25.6662 74.5244 27.4694 74.5244 27.4694C74.5244 27.4694 71.6084 36.1242 70.4437 36.8058Z" fill="white"/>
<path fill-rule="evenodd" clip-rule="evenodd" d="M79.3004 26.7682C79.3004 26.7682 79.514 26.1994 79.6681 25.7303C79.6701 25.3931 79.4758 25.336 79.3115 24.9433C81.273 15.9908 73.2553 10.3974 73.2553 10.3974L82.7557 14.9788L84.2682 27.2469L82.204 27.8005L79.3004 26.7682Z" fill="white"/>
</g>
</g>
<path fill-rule="evenodd" clip-rule="evenodd" d="M45.9726 26.5802C61.5838 31.7504 70.6739 45.0491 70.6739 45.0491C70.6739 45.0491 71.3791 46.1243 72.8018 46.3785C63.6338 31.4433 46.4782 25.1828 46.4782 25.1828C46.4782 25.1828 45.8272 26.7803 45.9726 26.5802Z" fill="#231F1F"/>
<path d="M72.7865 46.3419C72.7865 46.3419 75.4204 49.3144 77.7578 45.6415C78.2234 44.7877 79.1064 44.241 79.1064 44.241" stroke="#979797" stroke-width="0.243316"/>
<path fill-rule="evenodd" clip-rule="evenodd" d="M76.0022 48.2612C75.4442 48.3101 74.9282 47.6232 74.8498 46.7272C74.7714 45.8311 75.1603 45.0651 75.7183 45.0163C76.2764 44.9674 76.7923 45.6543 76.8707 46.5503C76.9491 47.4464 76.5603 48.2124 76.0022 48.2612Z" fill="url(#paint1_radial)"/>
<path fill-rule="evenodd" clip-rule="evenodd" d="M74.9749 47.1382C74.9749 47.1382 74.6132 46.2414 75.1752 45.4678C75.3527 45.0032 76.8786 45.0679 74.9749 47.1382Z" fill="#231F1F"/>
<path fill-rule="evenodd" clip-rule="evenodd" d="M66.2978 36.2055C66.2473 35.927 66.1302 35.3015 65.7541 33.9665C64.5935 32.6608 61.0053 30.2509 61.0053 30.2509L59.5266 30.6525C59.5266 30.6525 64.7294 34.4326 66.2978 36.2055Z" fill="#231F1F"/>
<g clip-path="url(#clip16)">
<path d="M46.7422 24.0471C49.744 24.587 59.5658 30.6819 59.5658 30.6819" stroke="#979797" stroke-width="0.243316"/>
</g>
<path d="M55.0872 27.9802L64.0549 16.7758C64.871 15.7562 66.2321 15.3466 67.4754 15.7466L72.407 17.3331C73.0686 17.5459 73.5747 18.0835 73.7472 18.7568L75.0127 23.6968L82.3472 26.1438" stroke="#979797" stroke-width="0.243316"/>
<path fill-rule="evenodd" clip-rule="evenodd" d="M69.4837 11.2236C69.4837 11.2236 69.5196 10.973 69.6698 10.7662C71.1816 11.0525 73.2612 11.9389 73.2612 11.9389L73.2103 12.3898C71.5419 11.7044 69.4837 11.2236 69.4837 11.2236Z" fill="#DBDBDB"/>
<path fill-rule="evenodd" clip-rule="evenodd" d="M60.6421 14.8182C60.4881 14.6642 60.5232 14.3793 60.7206 14.1819C60.918 13.9845 61.2029 13.9493 61.3569 14.1034C61.511 14.2574 61.4758 14.5423 61.2785 14.7397C61.0811 14.9371 60.7962 14.9722 60.6421 14.8182Z" fill="white"/>
<path fill-rule="evenodd" clip-rule="evenodd" d="M59.2987 17.222C59.1867 17.1139 59.2008 16.9178 59.3301 16.7839C59.4593 16.6501 59.6549 16.6292 59.7668 16.7372C59.8787 16.8453 59.8647 17.0415 59.7354 17.1754C59.6061 17.3092 59.4106 17.3301 59.2987 17.222Z" fill="white"/>
<g clip-path="url(#clip17)">
<path fill-rule="evenodd" clip-rule="evenodd" d="M79.4344 38.3111L75.8218 40.7616C75.599 40.9127 75.2964 40.8582 75.1403 40.6389L74.8463 40.2256C74.7625 40.1078 74.9346 39.935 74.8886 39.798C73.7476 37.6205 73.0403 35.1437 73.0403 35.1437L73.6741 33.1448C73.7247 32.9856 73.8566 32.8678 74.0203 32.8344C75.0765 32.6192 78.9874 31.7252 79.9794 30.1118C80.353 29.8851 81.3342 29.9516 80.9517 30.6311C80.1947 32.7335 80.3153 37.9504 80.3153 37.9504L79.4344 38.3111Z" fill="#EFEDEE"/>
<mask id="mask11" mask-type="alpha" maskUnits="userSpaceOnUse" x="73" y="29" width="9" height="12">
<path fill-rule="evenodd" clip-rule="evenodd" d="M79.4344 38.3111L75.8218 40.7616C75.599 40.9127 75.2964 40.8582 75.1403 40.6389L74.8463 40.2256C74.7625 40.1078 74.9346 39.935 74.8886 39.798C73.7476 37.6205 73.0403 35.1437 73.0403 35.1437L73.6741 33.1448C73.7247 32.9856 73.8566 32.8678 74.0203 32.8344C75.0765 32.6192 78.9874 31.7252 79.9794 30.1118C80.353 29.8851 81.3342 29.9516 80.9517 30.6311C80.1947 32.7335 80.3153 37.9504 80.3153 37.9504L79.4344 38.3111Z" fill="white"/>
</mask>
<g mask="url(#mask11)">
<path fill-rule="evenodd" clip-rule="evenodd" d="M76.4653 40.1862C73.6407 39.8844 76.4985 33.1694 77.0815 32.5294C78.855 31.9321 80.9172 30.1328 80.9172 30.1328L79.7693 29.2988L72.2139 33.1507L74.3124 41.2076C74.3124 41.2076 76.285 41.3208 76.4653 40.1862Z" fill="#E4E2E4"/>
</g>
</g>
</g>
</g>
</g>
<path fill-rule="evenodd" clip-rule="evenodd" d="M30.9779 5.2697C29.7685 5.2697 28.788 4.28927 28.788 3.07986C28.788 1.87044 29.7685 0.890015 30.9779 0.890015C32.1873 0.890015 33.1677 1.87044 33.1677 3.07986C33.1677 4.28927 32.1873 5.2697 30.9779 5.2697Z" stroke="#FDD830" stroke-width="0.817541"/>
<path fill-rule="evenodd" clip-rule="evenodd" d="M99.1061 29.1146C98.1655 29.1146 97.4029 28.3521 97.4029 27.4114C97.4029 26.4708 98.1655 25.7082 99.1061 25.7082C100.047 25.7082 100.809 26.4708 100.809 27.4114C100.809 28.3521 100.047 29.1146 99.1061 29.1146Z" stroke="#1DB7C2" stroke-width="0.654032"/>
<g clip-path="url(#clip18)">
<path d="M0.68689 67.3086L2.33158 68.9661" stroke="#E8408B" stroke-width="0.875936" stroke-linecap="round" stroke-linejoin="round"/>
<path d="M2.33142 67.3086L0.686734 68.9661" stroke="#DC4C79" stroke-width="0.875936" stroke-linecap="round" stroke-linejoin="round"/>
</g>
<path d="M100.314 65.612C100.314 65.612 100.469 66.5533 99.4631 66.5533C98.457 66.5533 97.8742 66.7674 97.8742 68.1608C97.8742 69.5542 96.5409 68.2986 96.5409 68.2986" stroke="white" stroke-width="0.486631" stroke-linecap="round" stroke-linejoin="round"/>
<defs>
<radialGradient id="paint0_radial" cx="0" cy="0" r="1" gradientUnits="userSpaceOnUse" gradientTransform="translate(78.1442 13.6719) rotate(138.063) scale(25.3425 30.4453)">
<stop offset="0.0386639" stop-color="#F9F9F9"/>
<stop offset="1" stop-color="#E8E7E8"/>
</radialGradient>
<radialGradient id="paint1_radial" cx="0" cy="0" r="1" gradientUnits="userSpaceOnUse" gradientTransform="translate(75.7183 45.0163) rotate(85) scale(3.25736 2.0286)">
<stop stop-color="#AFADAD"/>
<stop offset="1" stop-color="#F8F8F8"/>
</radialGradient>
<clipPath id="clip0">
<rect width="90.0268" height="90.5134" fill="white" transform="matrix(-1 0 0 1 94.4832 1.37665)"/>
</clipPath>
<clipPath id="clip1">
<rect width="88.5669" height="64.722" fill="white" transform="matrix(-1 0 0 1 93.2999 19.4606)"/>
</clipPath>
<clipPath id="clip2">
<rect width="36.6839" height="17.6909" fill="white" transform="matrix(-1 0 0 1 93.2998 44.3317)"/>
</clipPath>
<clipPath id="clip3">
<rect width="29.6845" height="19.9519" fill="white" transform="matrix(-1 0 0 1 79.4192 63.9221)"/>
</clipPath>
<clipPath id="clip4">
<rect width="16.9614" height="10.6145" fill="white" transform="matrix(-1 0 0 1 66.7969 67.8535)"/>
</clipPath>
<clipPath id="clip5">
<rect width="23.8449" height="28.7112" fill="white" transform="matrix(-1 0 0 1 28.9795 47.2576)"/>
</clipPath>
<clipPath id="clip6">
<rect width="16.1724" height="14.9389" fill="white" transform="matrix(-1 0 0 1 28.9794 60.624)"/>
</clipPath>
<clipPath id="clip7">
<rect width="37.9572" height="45.7433" fill="white" transform="matrix(-1 0 0 1 64.8395 34.6914)"/>
</clipPath>
<clipPath id="clip8">
<rect width="21.8984" height="24.8182" fill="white" transform="matrix(-1 0 0 1 54.5836 51.9891)"/>
</clipPath>
<clipPath id="clip9">
<rect width="31.9505" height="28.6985" fill="white" transform="matrix(-1 0 0 1 64.8395 34.6914)"/>
</clipPath>
<clipPath id="clip10">
<rect width="41.0228" height="20.4428" fill="white" transform="matrix(-0.99863 0.052336 0.052336 0.99863 51.5999 19.9436)"/>
</clipPath>
<clipPath id="clip11">
<rect width="32.3449" height="18.084" fill="white" transform="matrix(-0.99863 0.052336 0.052336 0.99863 42.9336 20.3978)"/>
</clipPath>
<clipPath id="clip12">
<rect width="40.2339" height="33.0229" fill="white" transform="matrix(-0.809017 -0.587785 -0.587785 0.809017 94.4297 25.49)"/>
</clipPath>
<clipPath id="clip13">
<rect width="26.1167" height="19.6732" fill="white" transform="matrix(-0.809017 -0.587785 -0.587785 0.809017 86.8843 30.6985)"/>
</clipPath>
<clipPath id="clip14">
<rect width="40.2339" height="33.0229" fill="white" transform="matrix(-0.809017 -0.587785 -0.587785 0.809017 94.4297 25.49)"/>
</clipPath>
<clipPath id="clip15">
<rect width="40.2339" height="33.0229" fill="white" transform="matrix(-0.809017 -0.587785 -0.587785 0.809017 94.4297 25.49)"/>
</clipPath>
<clipPath id="clip16">
<rect width="14.4898" height="2.38889" fill="white" transform="matrix(-0.809017 -0.587785 -0.587785 0.809017 59.7168 30.6664)"/>
</clipPath>
<clipPath id="clip17">
<rect width="8.54525" height="12.0729" fill="white" transform="matrix(-0.809017 -0.587785 -0.587785 0.809017 84.281 32.5558)"/>
</clipPath>
<clipPath id="clip18">
<rect width="1.94653" height="1.94653" fill="white" transform="matrix(-1 0 0 1 2.50989 67.0719)"/>
</clipPath>
</defs>
</svg>
