<svg width="135" height="144" viewBox="0 0 135 144" fill="none" xmlns="http://www.w3.org/2000/svg">
<g opacity="0.4">
<path d="M138.339 0.0356445C33.945 39.2351 -112.206 122.757 138.339 143.248V0.0356445Z" fill="white"/>
<path d="M167.271 10.0947C62.8778 49.2941 -83.2731 112.905 167.271 133.397V10.0947Z" fill="#272D3B"/>
<path d="M194.856 17.7687C90.4625 52.0558 -55.6885 107.695 194.856 125.619V17.7687Z" fill="white"/>
<path d="M172.871 35.1906C106.04 60.1146 12.4774 100.56 172.871 113.589V35.1906Z" fill="#272D3B"/>
<circle cx="80.6797" cy="13.7243" r="3.62957" fill="white"/>
<circle cx="48.2691" cy="67.3862" r="5.28881" transform="rotate(18.3001 48.2691 67.3862)" fill="white"/>
<path d="M49.9298 62.3649C47.1566 61.4477 44.1921 62.8703 43.2478 65.7255C42.773 67.1611 42.7877 68.2071 43.3881 69.5949C43.616 68.9057 51.6702 63.3774 51.6702 63.3774C51.6702 63.3774 51.4067 62.8533 49.9298 62.3649Z" fill="#272D3B"/>
</g>
</svg>
